<svg width="45" height="50" viewBox="0 0 45 50" fill="none" xmlns="http://www.w3.org/2000/svg">
<path d="M13.3794 45.6045C15.4821 48.2775 18.7854 50 22.4999 50C26.2144 50 29.5177 48.2775 31.6204 45.6045C25.5659 46.425 19.4339 46.425 13.3794 45.6045Z" fill="#1C274C"/>
<path d="M39.3728 17.5V19.2602C39.3728 21.3727 39.9757 23.438 41.1055 25.1955L43.874 29.503C46.403 33.4372 44.4725 38.7848 40.074 40.029C28.5682 43.2835 16.4319 43.2835 4.9259 40.029C0.527626 38.7848 -1.40295 33.4372 1.1259 29.503L3.8945 25.1955C5.0243 23.438 5.62718 21.3727 5.62718 19.2602V17.5C5.62718 7.83503 13.1814 0 22.5 0C31.8185 0 39.3728 7.83503 39.3728 17.5Z" fill="#1C274C"/>
</svg>
